    <svg version="1.1" viewBox="0 0 197 63" xmlns="http://www.w3.org/2000/svg" xmlns:xlink="http://www.w3.org/1999/xlink">
        <defs>
            <polygon id="b" points="0 63 196.92 63 196.92 0.68 0 0.68"/>
        </defs>
        <g fill="none" fill-rule="evenodd">
            <g transform="translate(-40 -48)">
                <g transform="translate(40 47)">
                    <g fill="#FFFFFE">
                        <path d="m4.8848 23.66l-4.8848 12.805h2.8635l1.0131-2.852h4.8114l0.97193 2.852h2.9389l-4.8114-12.805h-2.9027zm1.4051 3.155h0.038194l1.6202 4.7h-3.3349l1.6765-4.7z"/>
                        <g transform="translate(0 .3204)">
                            <path d="m20.153 30.137c-0.16283-1.041-0.8282-1.597-1.8926-1.597-1.6413 0-2.1811 1.65-2.1811 3.013 0 1.328 0.52265 2.925 2.1268 2.925 1.189 0 1.8745-0.755 2.0373-1.884h2.4695c-0.32364 2.457-2.0363 3.803-4.4878 3.803-2.8133 0-4.7059-1.973-4.7059-4.755 0-2.886 1.7298-5.022 4.7592-5.022 2.1982 0 4.2184 1.149 4.3812 3.517h-2.5067z"/>
                            <path d="m27.76 26.872h1.8765v1.704h-1.8765v4.591c0 0.862 0.21811 1.077 1.0835 1.077 0.27138 0 0.52265-0.018 0.79303-0.072v1.992c-0.4332 0.07-0.99304 0.09-1.4956 0.09-1.569 0-2.9409-0.361-2.9409-2.207v-5.471h-1.5489v-1.704h1.5489v-2.78h2.56v2.78z"/>
                            <mask id="a" fill="white">
                                <use xlink:href="#b"/>
                            </mask>
                            <path d="m31.294 36.144h2.562v-9.272h-2.562v9.272zm0-10.707h2.562v-2.098h-2.562v2.098z" mask="url(#a)"/>
                            <path d="m40.758 34.478c1.7489 0 2.2735-1.489 2.2735-2.96 0-1.489-0.52466-2.977-2.2735-2.977-1.7298 0-2.2514 1.488-2.2514 2.977 0 1.471 0.52165 2.96 2.2514 2.96m0-7.857c2.9389 0 4.8315 1.937 4.8315 4.897 0 2.941-1.8926 4.879-4.8315 4.879-2.9188 0-4.8114-1.938-4.8114-4.879 0-2.96 1.8926-4.897 4.8114-4.897" mask="url(#a)"/>
                            <path d="m47.611 26.872h2.4323v1.291h0.05327c0.6493-1.04 1.766-1.543 2.8485-1.543 2.7228 0 3.4073 1.525 3.4073 3.821v5.703h-2.56v-5.236c0-1.525-0.44928-2.278-1.6383-2.278-1.3901 0-1.9851 0.771-1.9851 2.653v4.861h-2.558v-9.272z" mask="url(#a)"/>
                            <path d="m66.231 31.894c0 1.704 1.3348 2.368 2.8485 2.368 0.99103 0 2.5067-0.287 2.5067-1.597 0-1.381-1.9298-1.614-3.8224-2.115-1.9117-0.503-3.8395-1.238-3.8395-3.642 0-2.618 2.4876-3.874 4.8134-3.874 2.6856 0 5.1552 1.166 5.1552 4.126h-2.7409c-0.087444-1.544-1.189-1.938-2.5399-1.938-0.90057 0-1.9469 0.377-1.9469 1.454 0 0.986 0.61211 1.111 3.8395 1.937 0.93877 0.233 3.8204 0.824 3.8204 3.73 0 2.351-1.8554 4.107-5.3532 4.107-2.8485 0-5.517-1.399-5.4798-4.556h2.7389z" mask="url(#a)"/>
                            <path d="m83.015 31.536c0-1.471-0.59502-2.996-2.2364-2.996-1.6765 0-2.2183 1.489-2.2183 2.996 0 1.505 0.57793 2.942 2.2384 2.942 1.6745 0 2.2162-1.437 2.2162-2.942zm-6.9241-4.664h2.4344v1.185h0.035179c0.61512-0.987 1.6242-1.437 2.7781-1.437 2.9188 0 4.2365 2.352 4.2365 4.988 0 2.473-1.37 4.789-4.0928 4.789-1.1177 0-2.1811-0.486-2.7942-1.4h-0.037189v4.414h-2.56v-12.539z" mask="url(#a)"/>
                            <path d="m91.993 34.478c1.7489 0 2.2715-1.489 2.2715-2.96 0-1.489-0.52265-2.977-2.2715-2.977-1.7298 0-2.2534 1.488-2.2534 2.977 0 1.471 0.52366 2.96 2.2534 2.96m0-7.857c2.9389 0 4.8315 1.937 4.8315 4.897 0 2.941-1.8926 4.879-4.8315 4.879-2.9188 0-4.8134-1.938-4.8134-4.879 0-2.96 1.8946-4.897 4.8134-4.897" mask="url(#a)"/>
                            <path d="m98.844 26.872h2.4323v1.722h0.036184c0.47039-1.166 1.7308-1.974 2.9751-1.974 0.18092 0 0.39802 0.037 0.55984 0.09v2.368c-0.2372-0.054-0.61412-0.089-0.91866-0.089-1.8785 0-2.5268 1.345-2.5268 2.976v4.179h-2.558v-9.272z" mask="url(#a)"/>
                            <path d="m109.46 26.872h1.8745v1.704h-1.8745v4.591c0 0.862 0.2171 1.077 1.0815 1.077 0.27037 0 0.52366-0.018 0.79303-0.072v1.992c-0.43219 0.07-0.99003 0.09-1.4976 0.09-1.569 0-2.9389-0.361-2.9389-2.207v-5.471h-1.5489v-1.704h1.5489v-2.78h2.562v2.78z" mask="url(#a)"/>
                            <path d="m121.4 29.366h2.1992c1.3157 0 2.4856-0.287 2.4856-1.919s-1.1699-1.919-2.4856-1.919h-2.1992v3.838zm-2.8304-6.026h5.8045c3.2083 0 4.4546 2.026 4.4546 4.107 0 2.08-1.2463 4.107-4.4546 4.107h-2.9741v4.591h-2.8304v-12.805z" mask="url(#a)"/>
                            <path d="m130.68 23.339h2.559v4.824h0.053271c0.6503-1.04 1.767-1.543 2.7228-1.543 2.7228 0 3.4063 1.526 3.4063 3.822v5.703h-2.56v-5.237c0-1.525-0.45129-2.277-1.6393-2.277-1.388 0-1.9831 0.77-1.9831 2.652v4.862h-2.559v-12.806z" mask="url(#a)"/>
                            <path d="m146.33 37.311c-0.55783 1.489-1.4413 2.1-3.2063 2.1-0.52366 0-1.0463-0.037-1.57-0.09v-2.1c0.48647 0.037 0.99103 0.109 1.4956 0.09 0.88348-0.09 1.1719-1.004 0.88348-1.738l-3.2786-8.7h2.7389l2.1097 6.348h0.037189l2.0343-6.348h2.6505l-3.8948 10.438z" mask="url(#a)"/>
                            <path d="m153.43 33.131c0.019097 1.113 0.95384 1.562 1.965 1.562 0.73774 0 1.6765-0.288 1.6765-1.185 0-0.772-1.0654-1.04-2.9037-1.434-1.4765-0.323-2.955-0.842-2.955-2.476 0-2.367 2.0554-2.978 4.0546-2.978 2.0373 0 3.9139 0.682 4.1119 2.961h-2.4354c-0.071362-0.987-0.8272-1.256-1.7479-1.256-0.57492 0-1.4232 0.109-1.4232 0.86 0 0.916 1.4413 1.041 2.9017 1.382 1.4976 0.341 2.956 0.879 2.956 2.6 0 2.441-2.1258 3.23-4.2536 3.23-2.165 0-4.2717-0.807-4.3812-3.266h2.4344z" mask="url(#a)"/>
                            <path d="m161.56 36.144h2.56v-9.272h-2.56v9.272zm-0.001005-10.707h2.56v-2.098h-2.56v2.098z" mask="url(#a)"/>
                            <path d="m171.02 34.478c1.7489 0 2.2725-1.489 2.2725-2.96 0-1.489-0.52366-2.977-2.2725-2.977-1.7298 0-2.2524 1.488-2.2524 2.977 0 1.471 0.52265 2.96 2.2524 2.96m0-7.857c2.9399 0 4.8325 1.937 4.8325 4.897 0 2.941-1.8926 4.879-4.8325 4.879-2.9198 0-4.8124-1.938-4.8124-4.879 0-2.96 1.8926-4.897 4.8124-4.897" mask="url(#a)"/>
                            <path d="m103.56 0.766c10.261 0.135 23.165 1.237 29.712 2.056 8.4921 1.061 14.51 1.929 21.379 3.473 8.6117 1.936 11.059 2.604 16.529 4.467 5.4708 1.862 9.5485 3.544 14.527 6.388 3.8415 2.195 6.6447 4.6 8.475 6.828 1.8976 2.309 2.8655 4.96 2.7228 7.343-0.42817 7.16-9.3856 13.92-23.648 19.241-7.1614 2.672-15.734 5.208-25.554 7.313-9.8912 2.12-20.863 3.843-32.609 5.123-0.014071 2e-3 -0.029148 2e-3 -0.039199 2e-3 -0.15881 0-0.29248-0.103-0.3156-0.249-0.020102-0.155 0.099505-0.297 0.27037-0.321 21.424-2.812 40.532-7.242 53.891-12.748 6.6809-2.752 11.521-5.446 15.249-8.507 3.8264-3.142 6.0567-6.878 6.0035-10.2-0.05126-3.304-2.764-7.884-10.636-12.273-8.2629-4.609-19.435-8.663-33.632-11.769-10.047-2.198-21.302-4.152-45.238-5.242 0 0-9.3304-0.299-15.249-0.361-0.4533-5e-3 -0.47441-0.272-0.46838-0.37 0.015077-0.224 0.37289-0.28 0.37289-0.28s10.855-0.011 18.258 0.086" mask="url(#a)"/>
                            <path d="m2.3863 50.414c0 1.093 0.85534 1.519 1.8263 1.519 0.63623 0 1.6082-0.184 1.6082-1.024 0-0.887-1.2373-1.036-2.4514-1.358-1.2262-0.322-2.4635-0.794-2.4635-2.335 0-1.68 1.5951-2.486 3.0877-2.486 1.7227 0 3.3078 0.747 3.3078 2.646h-1.7579c-0.058296-0.988-0.76388-1.242-1.6303-1.242-0.57894 0-1.2503 0.242-1.2503 0.931 0 0.633 0.394 0.714 2.4645 1.244 0.60005 0.149 2.4504 0.529 2.4504 2.393 0 1.506-1.191 2.635-3.4344 2.635-1.8263 0-3.538-0.899-3.5148-2.923h1.7579z" mask="url(#a)"/>
                            <path d="m12.2 50.229c-0.27741 0.242-0.85635 0.254-1.3639 0.346-0.50959 0.103-0.97193 0.275-0.97193 0.874 0 0.61 0.4734 0.759 1.0061 0.759 1.2835 0 1.3298-1.012 1.3298-1.369v-0.61zm-3.7923-1.207c0.091464-1.531 1.4674-1.991 2.8083-1.991 1.1921 0 2.6263 0.264 2.6263 1.691v3.095c0 0.541 0.057291 1.082 0.20806 1.323h-1.6655c-0.058296-0.184-0.10453-0.38-0.11659-0.575-0.51964 0.541-1.2825 0.736-2.0122 0.736-1.1327 0-2.0343-0.564-2.0343-1.783 0-1.346 1.0182-1.668 2.0343-1.807 1.0061-0.149 1.9439-0.115 1.9439-0.782 0-0.702-0.48546-0.805-1.0644-0.805-0.62417 0-1.0292 0.253-1.0875 0.898h-1.6403z" mask="url(#a)"/>
                            <path d="m15.111 47.192h1.5619v0.828h0.034174c0.41611-0.667 1.1338-0.989 1.8263-0.989 1.7469 0 2.1861 0.977 2.1861 2.45v3.659h-1.6423v-3.359c0-0.978-0.28846-1.462-1.0523-1.462-0.88952 0-1.2715 0.495-1.2715 1.703v3.118h-1.6423v-5.948z" mask="url(#a)"/>
                            <path d="m24.047 47.192h1.2021v1.094h-1.2021v2.945c0 0.552 0.1387 0.69 0.69352 0.69 0.17288 0 0.3347-0.012 0.50858-0.046v1.277c-0.27741 0.046-0.63623 0.058-0.95987 0.058-1.0061 0-1.8846-0.231-1.8846-1.416v-3.508h-0.99405v-1.094h0.99405v-1.783h1.6423v1.783z" mask="url(#a)"/>
                            <path d="m29.006 46.456h-1.1448l1.1106-1.634h1.8142l-1.78 1.634zm1.0523 3.072c-0.15077-0.828-0.50858-1.265-1.3066-1.265-1.0413 0-1.3418 0.804-1.3639 1.265h2.6706zm-2.6706 1.035c0.046235 1.036 0.55381 1.508 1.4685 1.508 0.65834 0 1.19-0.403 1.2946-0.771h1.4453c-0.46235 1.404-1.4453 2.002-2.7982 2.002-1.8846 0-3.0525-1.289-3.0525-3.129 0-1.783 1.2363-3.142 3.0525-3.142 2.0343 0 3.0183 1.703 2.9027 3.532h-4.3129z" mask="url(#a)"/>
                            <path d="m39.906 49.528c-0.14976-0.828-0.50858-1.266-1.3066-1.266-1.0413 0-1.3418 0.805-1.3639 1.266h2.6706zm-2.6706 1.035c0.046235 1.035 0.55482 1.508 1.4685 1.508 0.65834 0 1.19-0.403 1.2946-0.772h1.4453c-0.46235 1.405-1.4453 2.002-2.7982 2.002-1.8846 0-3.0525-1.289-3.0525-3.128 0-1.784 1.2363-3.142 3.0525-3.142 2.0353 0 3.0183 1.703 2.9027 3.532h-4.3129z" mask="url(#a)"/>
                            <path d="m44.598 47.192h1.2021v1.094h-1.2021v2.945c0 0.552 0.1387 0.69 0.69352 0.69 0.17288 0 0.3347-0.012 0.50858-0.046v1.277c-0.27741 0.046-0.63623 0.058-0.95987 0.058-1.0061 0-1.8846-0.231-1.8846-1.416v-3.508h-0.99405v-1.094h0.99405v-1.783h1.6423v1.783z" mask="url(#a)"/>
                            <path d="m49.844 47.192h1.5499v0.806h0.023117c0.42717-0.611 1.0523-0.967 1.8273-0.967 0.75182 0 1.4222 0.276 1.7459 0.989 0.34676-0.517 0.97193-0.989 1.8042-0.989 1.2725 0 2.1861 0.587 2.1861 2.128v3.981h-1.6423v-3.371c0-0.794-0.069352-1.45-1.0061-1.45-0.9257 0-1.0996 0.76-1.0996 1.508v3.313h-1.6413v-3.337c0-0.689 0.046235-1.484-0.99505-1.484-0.32364 0-1.1096 0.207-1.1096 1.369v3.452h-1.6423v-5.948z" mask="url(#a)"/>
                            <path d="m60.316 53.139h1.6423v-5.947h-1.6423v5.947zm0-6.867h1.6423v-1.348h-1.6423v1.348z" mask="url(#a)"/>
                            <path d="m67.276 49.528c-0.14976-0.828-0.50858-1.266-1.3066-1.266-1.0413 0-1.3418 0.805-1.3639 1.266h2.6706zm-2.6706 1.035c0.046235 1.035 0.55482 1.508 1.4685 1.508 0.65834 0 1.19-0.403 1.2946-0.772h1.4453c-0.46235 1.405-1.4453 2.002-2.7982 2.002-1.8846 0-3.0525-1.289-3.0525-3.128 0-1.784 1.2363-3.142 3.0525-3.142 2.0353 0 3.0183 1.703 2.9027 3.532h-4.3129z" mask="url(#a)"/>
                            <path d="m75.495 53.14h-1.5609v-0.828h-0.035179c-0.41611 0.667-1.1328 0.989-1.8263 0.989-1.7469 0-2.1861-0.978-2.1861-2.451v-3.658h1.6423v3.359c0 0.979 0.28947 1.461 1.0523 1.461 0.88952 0 1.2715-0.494 1.2715-1.702v-3.118h1.6423v5.948z" mask="url(#a)"/>
                            <polygon points="78.267 50.01 76.301 47.192 78.174 47.192 79.226 48.744 80.267 47.192 82.083 47.192 80.117 49.976 82.326 53.14 80.453 53.14 79.204 51.264 77.954 53.14 76.116 53.14" mask="url(#a)"/>
                            <polygon points="82.936 50.701 86.418 50.701 86.418 49.297 82.936 49.297" mask="url(#a)"/>
                            <path d="m91.676 49.528c-0.14976-0.828-0.50858-1.266-1.3066-1.266-1.0413 0-1.3418 0.805-1.3639 1.266h2.6706zm-2.0705-4.706h1.5046l1.2715 1.634h-1.3539l-0.71563-0.932-0.74076 0.932h-1.2493l1.2835-1.634zm-0.60005 5.741c0.046235 1.035 0.55482 1.508 1.4685 1.508 0.65834 0 1.19-0.403 1.2946-0.772h1.4453c-0.46235 1.405-1.4453 2.002-2.7982 2.002-1.8846 0-3.0525-1.289-3.0525-3.128 0-1.784 1.2363-3.142 3.0525-3.142 2.0353 0 3.0183 1.703 2.9027 3.532h-4.3129z" mask="url(#a)"/>
                            <path d="m96.369 47.192h1.2011v1.094h-1.2011v2.945c0 0.552 0.1387 0.69 0.69252 0.69 0.17288 0 0.3347-0.012 0.50858-0.046v1.277c-0.2764 0.046-0.63623 0.058-0.95987 0.058-1.0061 0-1.8836-0.231-1.8836-1.416v-3.508h-0.99505v-1.094h0.99505v-1.783h1.6423v1.783z" mask="url(#a)"/>
                            <path d="m98.354 47.192h1.5629v1.104h0.021107c0.30153-0.747 1.1116-1.265 1.9097-1.265 0.11559 0 0.25429 0.022 0.35681 0.057v1.519c-0.14876-0.034-0.393-0.058-0.58899-0.058-1.2021 0-1.6182 0.864-1.6182 1.911v2.68h-1.6433v-5.948z" mask="url(#a)"/>
                            <path d="m106.67 49.528c-0.14876-0.828-0.50858-1.266-1.3066-1.266-1.0413 0-1.3418 0.805-1.3629 1.266h2.6696zm-2.6696 1.035c0.046234 1.035 0.55482 1.508 1.4685 1.508 0.65734 0 1.189-0.403 1.2946-0.772h1.4443c-0.46235 1.405-1.4443 2.002-2.7982 2.002-1.8846 0-3.0525-1.289-3.0525-3.128 0-1.784 1.2363-3.142 3.0525-3.142 2.0353 0 3.0183 1.703 2.9037 3.532h-4.3129z" mask="url(#a)"/>
                        </g>
                    </g>
                </g>
            </g>
        </g>
    </svg>
