<?xml version="1.0" standalone="no"?>
<svg xmlns="http://www.w3.org/2000/svg" fill-rule="evenodd" stroke-linejoin="bevel" stroke-width="0.501" overflow="visible" version="1.1" viewBox="0 0 466.101 121.748">
  <g id="Document" fill="none" stroke="black" font-family="Times New Roman" font-size="16" transform="scale(1 -1)">
    <g id="Spread" transform="translate(0 -121.748)">
      <g id="Layer 1">
        <g id="Group" fill-rule="evenodd" stroke="none" stroke-linejoin="miter" stroke-miterlimit="79.8403193612775" stroke-width="3.169">
          <path fill="#ffbf28" marker-end="none" marker-start="none" d="M46.363 97.787a7.221 7.221 0 00-7.224-7.224 7.221 7.221 0 00-7.225 7.224v14.005a7.221 7.221 0 007.225 7.225 7.221 7.221 0 007.224-7.225V97.787z"/>
          <path fill="#aa55b4" marker-end="none" marker-start="none" d="M46.363 54.948a7.221 7.221 0 00-7.224-7.224 7.221 7.221 0 00-7.225 7.224v14.005a7.221 7.221 0 007.225 7.225 7.221 7.221 0 007.224-7.225V54.948z"/>
          <path fill="#3daa28" marker-end="none" marker-start="none" d="M53.587 76.146a7.221 7.221 0 00-7.224 7.224 7.221 7.221 0 007.224 7.225h14.005a7.221 7.221 0 007.225-7.225 7.221 7.221 0 00-7.225-7.224H53.587z"/>
          <path fill="#009fe1" marker-end="none" marker-start="none" d="M10.717 76.146a7.221 7.221 0 00-7.225 7.224 7.221 7.221 0 007.225 7.225h14.005a7.221 7.221 0 007.224-7.225 7.221 7.221 0 00-7.224-7.224H10.717z"/>
        </g>
        <g id="Group_1" fill="#505050" fill-rule="evenodd" stroke="none" stroke-linejoin="miter" stroke-miterlimit="79.8403193612775" stroke-width="3.169">
          <path marker-end="none" marker-start="none" d="M157.231 50.797c-3.327 2.06-7.097 3.074-11.248 3.074-6.844 0-11.977-2.376-15.399-7.098v29.373h-12.992V4.822h12.421l.19 6.178c1.49-2.44 3.549-4.309 6.211-5.64 2.661-1.331 5.608-1.996 8.935-1.996 4.373 0 8.27 1.172 11.755 3.517 3.486 2.345 6.179 5.418 8.08 9.252 1.901 3.834 2.852 8.049 2.852 12.643 0 4.975-.951 9.379-2.883 13.213-1.933 3.802-4.563 6.749-7.922 8.808zm-5.672-32.065c-2.344-2.567-5.386-3.834-9.093-3.834-3.739 0-6.781 1.267-9.094 3.834-2.345 2.566-3.517 5.83-3.517 9.822 0 4.056 1.172 7.351 3.549 9.886 2.376 2.567 5.386 3.834 9.062 3.834 3.675 0 6.685-1.267 9.062-3.834 2.376-2.566 3.549-5.862 3.549-9.886-.032-3.992-1.204-7.256-3.518-9.822zM189.582 4.821h-12.991v47.561h12.991V4.821zM244.335 32.737h-25.317v19.645h-7.826V4.822h7.826v21.324h25.317V4.822h7.827v47.56h-7.827zM269.747 25.797h20.437v6.559h-20.437v13.435h22.94v6.591h-30.449V4.822h31.4v6.558h-23.891zM316.167 52.382l-19.075-47.56h7.953l5.006 13.339h20.279l5.006-13.339h8.334l-19.075 47.56h-8.428zm-3.834-28.042l7.763 20.754 7.826-20.754h-15.589zM356.693 52.382h-7.827V4.822h30.165v6.875h-22.338zM374.183 45.791h15.684V4.822h7.827v40.969h15.716v6.591h-39.227zM453.27 52.382V32.737h-25.348v19.645h-7.826V4.822h7.826v21.324h25.348V4.822h7.795v47.56zM183.34 74.023h-.475a7.221 7.221 0 01-7.224-7.224 7.221 7.221 0 017.224-7.225h.475a7.221 7.221 0 017.225 7.225 7.221 7.221 0 01-7.225 7.224zM94.779 53.586c-5.228 0-9.823-1.077-13.784-3.264-3.96-2.186-7.002-5.165-9.093-8.967-2.123-3.802-3.169-8.111-3.169-12.991 0-5.038 1.077-9.442 3.264-13.181 2.186-3.739 5.26-6.591 9.189-8.587 3.96-1.996 8.523-2.978 13.688-2.978 2.915 0 5.798.316 8.587.982a28.462 28.462 0 015.038 1.679v11.407c-4.341-1.711-8.397-2.567-12.136-2.567-4.531 0-8.112 1.204-10.741 3.613-2.63 2.408-3.929 5.703-3.929 9.949 0 4.119 1.299 7.383 3.865 9.822 2.598 2.44 6.052 3.644 10.425 3.644 4.182 0 8.333-.982 12.516-2.978v11.819c-1.553.697-3.327 1.267-5.387 1.742-2.757.539-5.545.856-8.333.856z"/>
        </g>
      </g>
    </g>
  </g>
</svg>
