<?xml version="1.0" encoding="utf-8"?>
<!-- Generator: Adobe Illustrator 26.3.1, SVG Export Plug-In . SVG Version: 6.00 Build 0)  -->
<svg version="1.1" id="logo" xmlns="http://www.w3.org/2000/svg" xmlns:xlink="http://www.w3.org/1999/xlink" x="0px" y="0px"
	 viewBox="0 0 767 134" style="enable-background:new 0 0 767 134;" xml:space="preserve">
<style type="text/css">
	.st0{fill:#FFFFFF;}
	.st1{fill-rule:evenodd;clip-rule:evenodd;fill:#FFFFFF;}
</style>
<g id="type">
	<path class="st0" d="M259.8,89.7h9.2V21h-9.2V89.7z"/>
	<path class="st0" d="M225.7,91c12.7,0,22.1-7.5,24.7-18.6h-9.3c-2.3,6.1-7.9,10.1-15.4,10.1c-9.9,0-16.4-7-16.4-16.7
		s6.6-16.6,16.4-16.6c7.4,0,13,4,15.4,10.1h9.3c-2.5-11-12-18.6-24.7-18.6c-15.1,0-25.7,10.6-25.7,25.2S210.6,91,225.7,91z"/>
	<path class="st0" d="M291.1,89.7h-9.2V40.9h9.2V89.7z"/>
	<path class="st0" d="M302.1,89.7h9.2V64.8c0-10.3,5.7-15.7,14.4-15.7s14.4,5.3,14.4,15.7v24.9h9.2V64.8c0-16.1-9.4-24.2-23.6-24.2
		s-23.6,8.2-23.6,24.2V89.7z"/>
	<path class="st0" d="M369.7,89.7h-9.2V40.9h9.2V89.7z"/>
	<path class="st0" d="M404.6,91c12.7,0,22.1-7.5,24.7-18.6H420c-2.3,6.1-7.9,10.1-15.4,10.1c-9.9,0-16.4-7-16.4-16.7
		s6.6-16.6,16.4-16.6c7.4,0,13.1,4,15.4,10.1h9.3c-2.5-11-12-18.6-24.7-18.6c-15.1,0-25.7,10.6-25.7,25.2S389.5,91,404.6,91z"/>
	<path class="st0" d="M446,89.7h-9.2V62.1c0-14.6,8.5-21.4,19.7-21.4c7.4,0,13.5,3.3,16.8,9.5c3.3-6.2,9.4-9.5,16.8-9.5
		c11.2,0,19.7,6.8,19.7,21.4v27.7h-9.2V62.1c0-8.9-4.7-12.9-11.4-12.9c-6.5,0-11.3,4.2-11.3,12.9v27.7h-9.2V62.1
		c0-8.7-4.9-12.9-11.4-12.9c-6.7,0-11.4,4-11.4,12.9v27.6H446z"/>
	<path class="st1" d="M541.7,91c8.3,0,15.4-4,18.6-11.7v10.5h8.4V66.2c0-15.3-10.4-25.6-25.4-25.6c-15.2,0-25.8,10.5-25.8,25.6
		C517.5,82,529.2,91,541.7,91z M543.2,82.5c-9.9,0-16.4-7-16.4-16.7s6.6-16.6,16.4-16.6c9.9,0,16.4,7,16.4,16.6
		C559.6,75.5,553,82.5,543.2,82.5z"/>
	<path class="st0" d="M616.1,75c0,9.7-7.8,16-19.8,16s-19.5-6.4-19.8-15.1h9.3c0.2,4,3.9,6.8,10.5,6.8c7,0,10.5-3,10.5-6.8
		c0-4.5-4.9-5.1-10.8-5.9h-0.3c-8.3-1.1-18.4-2.6-18.4-13.6c0-9.4,7.4-15.8,18.8-15.8c11.4,0,18.5,6.5,18.7,14.7h-9.1
		c-0.3-3.7-3.7-6.4-9.5-6.4c-6.1,0-9.6,2.9-9.6,6.7c0,4.4,4.7,5,10.3,5.7l0.6,0.1C606,62.5,616.1,64.1,616.1,75z"/>
	<path class="st0" d="M643,91c11.4,0,19.1-6.4,19.1-19.4v-1.1H653v1.1c0,7.6-4.1,10.8-10.1,10.8s-10-3.3-10-10.8V49.4h26.3V41H633
		V25h-9.2v46.7C623.8,84.6,631.5,91,643,91z"/>
	<path class="st1" d="M717,76.4c-3.7,8.9-12.4,14.6-23.5,14.6c-15.1,0-25.7-10.6-25.7-25.2s10.6-25.2,25.7-25.2
		c15.1,0,25.5,10.6,25.5,25.2v3.4h-41.6c1.4,8.5,7.7,13.3,16,13.3c6.2,0,10.5-1.9,13.3-6.1C706.7,76.4,717,76.4,717,76.4z
		 M693.5,49.2c-7.9,0-13.9,4.3-15.8,11.8h31.6C707.5,53.3,701.2,49.2,693.5,49.2z"/>
	<path class="st0" d="M726.5,89.7h9.2V61.6c0-8.8,4.5-12.4,11.4-12.4c4.9,0,8.6,1.9,10.4,6.2h9.5c-2.1-10-9.6-14.7-19.9-14.7
		c-12.3,0-20.6,6.8-20.6,20.9L726.5,89.7L726.5,89.7z"/>
	<path class="st0" d="M291,30c0,0.6-0.1,1.2-0.3,1.8c-0.2,0.6-0.6,1.1-1,1.5s-0.9,0.8-1.5,1s-1.2,0.4-1.8,0.4
		c-0.6,0-1.2-0.1-1.8-0.4c-0.6-0.2-1.1-0.6-1.5-1s-0.8-1-1-1.5c-0.2-0.6-0.3-1.2-0.3-1.8c0-1.2,0.5-2.3,1.4-3.2
		c0.9-0.8,2-1.3,3.2-1.3s2.3,0.5,3.2,1.3C290.5,27.6,291,28.8,291,30z"/>
	<path class="st0" d="M367,34.3c-0.6,0.2-1.2,0.3-1.8,0.3c-0.6,0-1.2-0.1-1.8-0.3c-0.6-0.2-1.1-0.6-1.5-1s-0.8-1-1-1.5
		c-0.2-0.6-0.3-1.2-0.3-1.8c0-1.2,0.5-2.3,1.4-3.2c0.9-0.8,2-1.3,3.2-1.3s2.3,0.5,3.2,1.3c0.9,0.8,1.4,2,1.4,3.2
		c0,0.6-0.1,1.2-0.3,1.8c-0.2,0.6-0.6,1.1-1,1.5C368.1,33.7,367.6,34.1,367,34.3z"/>
</g>
<g id="emblem">
	<path id="_x2B_" class="st1" d="M133.6,85.3h30.6c4.7,0,9.2-1.9,12.5-5.2c3.3-3.4,5.2-7.9,5.2-12.6v-0.8c0-2.3-0.5-4.7-1.4-6.8
		c-0.9-2.2-2.2-4.1-3.8-5.8s-3.6-3-5.8-3.9s-4.5-1.4-6.8-1.4h-30.6V24c0-3.2-0.6-6.3-1.8-9.2s-3-5.6-5.2-7.8s-4.8-4-7.7-5.2
		c-2.9-1.2-6-1.8-9.1-1.8H97.4v48.7H67.1c-2.4,0-4.7,0.5-6.9,1.4s-4.2,2.3-5.9,4s-3,3.7-3.9,5.9S49,64.6,49,67s0.5,4.8,1.4,7
		s2.2,4.2,3.9,5.9c1.7,1.7,3.7,3,5.9,4c2.2,0.9,4.6,1.4,6.9,1.4h30.2V134h12.1c6.4,0,12.6-2.6,17.1-7.1c4.5-4.6,7.1-10.8,7.1-17.2
		V85.3z M123.5,10.2c-3.6-3.6-8.5-5.7-13.6-5.7h-8v44.2h4.8c7.1,0,14,2.9,19.1,8c5.1,5.1,7.9,12,7.9,19.2v4.9h30.6
		c3.5,0,6.9-1.4,9.4-3.9s3.9-5.9,3.9-9.4v-0.8c0-1.8-0.3-3.5-1-5.1s-1.6-3.1-2.9-4.3c-1.2-1.2-2.7-2.2-4.3-2.9s-3.3-1-5.1-1h-35.1
		V24C129.1,18.8,127.1,13.9,123.5,10.2z M129.1,80.7v-4.9c0-6-2.4-11.7-6.6-16c-4.2-4.2-9.9-6.6-15.9-6.6h-4.8v4.9
		c0,6,2.4,11.7,6.6,16c4.2,4.2,9.9,6.6,15.9,6.6H129.1z M97.4,53.3v4.9c0,7.2,2.8,14.1,7.9,19.2c5,5.1,11.9,8,19,8h4.8v24.4
		c0,5.3-2.1,10.3-5.8,14c-3.7,3.7-8.7,5.8-13.9,5.8h-7.6V80.7H67.1c-3.6,0-7.1-1.4-9.6-4c-2.6-2.6-4-6.1-4-9.7s1.4-7.1,4-9.7
		c2.6-2.6,6-4,9.6-4H97.4z"/>
	<path id="c" class="st0" d="M89,134H66.8C30,134,0,103.9,0,67S30,0,66.8,0H89v40.4H66.8c-7,0-13.8,2.8-18.8,7.8S40.2,60,40.2,67
		S43,80.8,48,85.8s11.7,7.8,18.8,7.8H89V134z"/>
</g>
</svg>
