<svg width="119" height="80" viewBox="0 0 119 80" xmlns="http://www.w3.org/2000/svg" xmlns:xlink="http://www.w3.org/1999/xlink"><defs><path id="a" d="M0 80h119V0H0z"/></defs><g fill="none" fill-rule="evenodd"><path d="M0 53.8693V23.9117c0-.2745.2214-.496.496-.496h12.7103c1.4812 0 2.8396.305 4.0743.916 1.2346.6102 2.2953 1.4095 3.182 2.3962.8858.9894 1.5826 2.1077 2.0925 3.3576.507 1.25.762 2.513.762 3.7926 0 1.3659-.2391 2.6743-.7192 3.9224-.4792 1.25-1.1481 2.3692-2.005 3.3558-.857.9894-1.8953 1.773-3.117 2.3544-1.2197.5814-2.5707.8716-4.0519.8716H7.6424a.4951.4951 0 0 0-.495.4961v8.9909a.4965.4965 0 0 1-.4959.496H.496A.496.496 0 0 1 0 53.8694Zm7.1474-16.2162c0 .2735.2215.496.495.496h5.3453c.843 0 1.5696-.3625 2.179-1.0895.6103-.726.9155-1.7869.9155-3.1815 0-.727-.0949-1.352-.2828-1.875-.1898-.523-.4438-.9588-.7639-1.3074-.32-.3487-.683-.6027-1.0895-.7622-.4066-.1605-.8132-.2411-1.2198-.2411H7.6424a.4951.4951 0 0 0-.495.496v7.4647Zm20.3964.9756c0-1.86.348-3.7119 1.0467-5.558.696-1.8444 1.7138-3.4931 3.05-4.948 1.336-1.4512 2.9642-2.6289 4.8818-3.5302 1.9167-.9004 4.0957-1.35 6.537-1.35 2.9048 0 5.4263.624 7.5606 1.873 1.992 1.1665 3.5114 2.6604 4.5553 4.4825.1284.2235.0568.5128-.1544.6593l-4.641 3.2417c-.2502.1753-.587.076-.7294-.1947-.3023-.5814-.6624-1.0803-1.0774-1.4966-.5387-.5388-1.1276-.9746-1.7659-1.3084-.6392-.3329-1.2923-.5666-1.9604-.6973-.6699-.1308-1.323-.1966-1.9613-.1966-1.3668 0-2.5568.2773-3.5746.828-1.017.5536-1.859 1.2649-2.528 2.1365-.667.8716-1.162 1.8601-1.4803 2.9645-.321 1.1044-.48 2.2227-.48 3.3558 0 1.2213.1888 2.398.5666 3.5311.3768 1.1331.922 2.1355 1.6338 3.0072.7127.8716 1.5686 1.5624 2.5716 2.0706 1.003.51 2.1288.764 3.3774.764.6392 0 1.3008-.0806 1.9837-.241.682-.1586 1.336-.4062 1.9613-.741.6243-.3337 1.1984-.7686 1.7213-1.3065.4075-.419.7527-.9133 1.0364-1.4818.1312-.2624.4476-.3718.7006-.2225l4.9778 2.9348c.2205.1299.3163.4127.2065.6436-.4559.969-1.0858 1.8471-1.8869 2.6371-.9164.9014-1.9706 1.6562-3.1606 2.2663-1.1918.6102-2.4554 1.0757-3.7914 1.3946-1.337.32-2.6452.4794-3.9227.4794-2.2376 0-4.2929-.4571-6.1667-1.3733-1.8748-.9152-3.4872-2.1271-4.8382-3.6386-1.351-1.5115-2.3977-3.226-3.1374-5.1436-.7415-1.9176-1.1118-3.8658-1.1118-5.8419m41.0982-.5557v15.796a.4965.4965 0 0 1-.4958.4961h-6.1557a.4965.4965 0 0 1-.4959-.496V23.9114a.496.496 0 0 1 .496-.496h4.8427c.1517 0 .294.0695.388.1873l13.3933 16.8764c.2922.3681.884.1614.884-.3078V23.9115a.496.496 0 0 1 .4958-.496h6.1566c.2745 0 .496.2216.496.496v29.9576a.496.496 0 0 1-.496.4961h-5.0205a.4966.4966 0 0 1-.3861-.1854L69.524 37.7623c-.294-.3644-.882-.1567-.882.3106" fill="#005CB8"/><path d="M117.8245 8.7256c-6.78-13.517-41.0508-11.1134-81.4913 5.712a.5877.5877 0 0 0-.3312.3626.5873.5873 0 0 0 .0642.4859l.0884.1382c.1498.2336.4447.33.7025.228 34.2057-13.464 63.5677-14.1344 69.8136-1.605 2.7894 5.597.4866 13.3787-6.0998 21.9792-2.2079 3.073 1.0049 5.559 3.8659 2.5945 12.0312-11.8478 17.0508-22.593 13.3877-29.8954ZM.3937 75.1057V60.0634h6.712c.7536 0 1.444.1493 2.071.4451.629.2967 1.1677.6862 1.618 1.1656a5.5459 5.5459 0 0 1 1.0635 1.631c.2577.6084.388 1.2213.388 1.8426 0 .6649-.1228 1.301-.3656 1.9074-.2447.6074-.5834 1.1517-1.0188 1.631-.4364.4813-.9649.8615-1.5845 1.1443-.6206.2829-1.3073.4238-2.06.4238H4.027v4.8515H.3937Zm3.6332-7.8809h2.969c.4289 0 .7964-.1762 1.1081-.5295.3098-.3533.4643-.8688.4643-1.5476 0-.3514-.0484-.6556-.1433-.9106-.0968-.255-.2261-.4664-.388-.6352-.1628-.1697-.347-.294-.5545-.3709-.2066-.0779-.4122-.1159-.6197-.1159H4.027v4.1097Zm25.5194 7.8809h-3.544V68.856c0-.7205-.1488-1.25-.4437-1.5894-.295-.3384-.7016-.5081-1.218-.5081-.2074 0-.4316.0454-.6754.1381-.2438.091-.4801.2254-.709.4025-.2298.1762-.4391.3848-.6317.625a2.7129 2.7129 0 0 0-.443.804v6.3777h-3.5439v-15.466h3.544v6.2072c.428-.663.9937-1.1749 1.6952-1.5356.7006-.3598 1.4728-.5406 2.314-.5406.7833 0 1.4142.1317 1.8943.3932.4791.2614.8494.5925 1.108.995.2578.4033.4318.854.5211 1.3556.0875.5017.1321.9931.1321 1.4725v7.1187Zm6.5573 1.6739c.2959.0992.5722.1697.8318.2123.2577.0417.4913.063.6978.063.427 0 .7602-.1418.9965-.4246.2354-.282.4503-.791.642-1.5245L34.842 63.9822h3.6556l2.7019 8.2212 2.3251-8.2212h3.3234l-4.4306 12.9253c-.3098.9171-.8634 1.6617-1.6608 2.2338-.7983.5731-1.7426.8587-2.8359.8587-.2959 0-.5945-.026-.897-.0742-.3032-.0491-.6084-.1317-.92-.2439v-2.9023Zm20.89-1.4618c-.989 0-1.9632-.153-2.9243-.4562-.9593-.3023-1.7715-.7437-2.4368-1.3242l1.2635-2.0752c.709.4664 1.3994.8253 2.0711 1.0793.6718.255 1.3184.382 1.939.382.4568 0 .8113-.0778 1.0635-.2327.2502-.1548.3758-.382.3758-.6787 0-.2958-.159-.5323-.4763-.7085-.3182-.1771-.8755-.3644-1.673-.562-.7833-.2113-1.444-.4163-1.9817-.6147-.5406-.1975-.9788-.4163-1.3184-.6574-.3405-.2393-.5843-.5147-.7313-.8253-.148-.3116-.2214-.6779-.2214-1.1026 0-.5637.1181-1.0793.3545-1.5457.2354-.4664.561-.8615.975-1.186.4122-.3255.9044-.5796 1.472-.7632.5694-.1836 1.1862-.2763 1.8505-.2763.8718 0 1.6878.114 2.448.3403.7601.2253 1.4951.6352 2.2041 1.2277l-1.3733 2.0345c-.6643-.4368-1.2551-.7558-1.7724-.9533-.5173-.1984-1.0188-.2976-1.5064-.2976-.3842 0-.709.075-.975.2235-.2652.1474-.3983.3848-.3983.7093 0 .3107.1443.5443.4318.6992.2884.1567.8224.3245 1.6059.5081.827.2124 1.5249.4238 2.0943.6362.5676.2123 1.03.4488 1.3845.7093.3545.2615.6122.561.775.9013.1619.3385.2438.741.2438 1.2074 0 1.1006-.429 1.9778-1.2859 2.627-.856.65-2.0152.9745-3.4778.9745m26.8497 0c-.989 0-1.872-.1567-2.648-.4664-.7741-.3107-1.4291-.7316-1.9594-1.2602a5.2995 5.2995 0 0 1-1.2077-1.8443c-.2736-.6992-.4103-1.429-.4103-2.1912 0-.7632.1367-1.4948.4103-2.194.2735-.6991.6764-1.312 1.2077-1.8434.5303-.5295 1.1853-.9532 1.9594-1.2703.776-.3172 1.659-.4776 2.648-.4776.989 0 1.8682.1604 2.6368.4776.7666.317 1.417.7408 1.9483 1.2703.5321.5314.9387 1.1443 1.2188 1.8435.28.6991.4215 1.4307.4215 2.1939 0 .7622-.1368 1.492-.4103 2.1912-.2727.7-.6765 1.3148-1.2077 1.8443-.5313.5286-1.1854.9495-1.9595 1.2602-.776.3097-1.6589.4664-2.648.4664m-2.592-5.7621c0 .8744.2437 1.5782.7312 2.1068.4876.5294 1.1072.7946 1.8609.7946.3693 0 .709-.0704 1.0188-.2114a2.4435 2.4435 0 0 0 .8085-.5925c.2289-.256.4103-.562.5424-.9226.133-.3598.2-.7511.2-1.175 0-.8771-.2446-1.5781-.7312-2.1095-.4876-.5294-1.0998-.7928-1.8385-.7928-.3694 0-.7127.0705-1.03.2105a2.4062 2.4062 0 0 0-.8197.5935c-.2289.254-.4103.5619-.5424.9217-.133.3607-.2.752-.2 1.1767" fill="#2EB1E6"/><mask id="b" fill="#fff"><use xlink:href="#a"/></mask><path d="M67.8923 62.7118h3.544v-3.072h-3.544v3.072Zm0 12.395h3.544V63.983h-3.544v11.1237Z" fill="#2EB1E6" mask="url(#b)"/></g></svg>