<?xml version="1.0" encoding="UTF-8" standalone="no"?>
<svg
   xmlns:dc="http://purl.org/dc/elements/1.1/"
   xmlns:cc="http://creativecommons.org/ns#"
   xmlns:rdf="http://www.w3.org/1999/02/22-rdf-syntax-ns#"
   xmlns:svg="http://www.w3.org/2000/svg"
   xmlns="http://www.w3.org/2000/svg"
   xmlns:sodipodi="http://sodipodi.sourceforge.net/DTD/sodipodi-0.dtd"
   xmlns:inkscape="http://www.inkscape.org/namespaces/inkscape"
   version="1.1"
   id="svg2"
   xml:space="preserve"
   width="607.1333"
   height="116.37333"
   viewBox="0 0 607.1333 116.37333"
   sodipodi:docname="PhysioExtra-CliniqueSante-HOR-Couleur.eps"><metadata
     id="metadata8"><rdf:RDF><cc:Work
         rdf:about=""><dc:format>image/svg+xml</dc:format><dc:type
           rdf:resource="http://purl.org/dc/dcmitype/StillImage" /></cc:Work></rdf:RDF></metadata><defs
     id="defs6" /><sodipodi:namedview
     pagecolor="#ffffff"
     bordercolor="#666666"
     borderopacity="1"
     objecttolerance="10"
     gridtolerance="10"
     guidetolerance="10"
     inkscape:pageopacity="0"
     inkscape:pageshadow="2"
     inkscape:window-width="640"
     inkscape:window-height="480"
     id="namedview4" /><g
     id="g10"
     inkscape:groupmode="layer"
     inkscape:label="ink_ext_XXXXXX"
     transform="matrix(1.3333333,0,0,-1.3333333,0,116.37333)"><g
       id="g12"
       transform="scale(0.1)"><path
         d="m 3330,598.27 c 0,-117.86 -95.57,-213.434 -213.45,-213.434 -117.86,0 -213.43,95.574 -213.43,213.434 0,117.89 95.57,213.449 213.43,213.449 117.88,0 213.45,-95.559 213.45,-213.449 v 0"
         style="fill:#ffffff;fill-opacity:1;fill-rule:nonzero;stroke:none"
         id="path14" /><path
         d="m 529.516,818.438 h 52.293 V 634.773 h 1.226 c 19.449,48.028 60.203,58.391 125.266,58.391 h 74.836 c 97.886,0 128.898,-49.258 128.898,-105.234 V 378.113 h -52.293 v 197.082 c 0,45.586 -12.754,75.41 -114.344,75.41 h -13.355 c -122.27,0 -150.234,-23.117 -150.234,-96.113 V 378.113 h -52.293 v 440.325"
         style="fill:#231f20;fill-opacity:1;fill-rule:nonzero;stroke:none"
         id="path16" /><path
         d="m 1357.67,485.168 h 48.64 v -15.219 c 0,-38.308 20.06,-54.109 73.57,-54.109 h 111.93 c 78.44,0 103.37,3.039 103.37,49.277 v 2.422 c 0,29.774 -8.5,46.211 -71.13,46.211 h -161.18 c -73.6,0 -100.94,23.711 -100.94,82.715 v 18.23 c 0,50.489 28.57,78.469 157.49,78.469 h 80.29 c 118,0 134.4,-34.023 134.4,-77.832 v -16.426 h -48.64 v 3.016 c 0,47.461 -31.62,48.683 -88.8,48.683 h -91.22 c -74.82,0 -91.24,-7.285 -91.24,-42.558 v -11.582 c 0,-25.547 8.52,-40.125 63.26,-40.125 h 138.04 c 78.46,0 132,-7.922 132,-91.86 v -1.187 c 0,-86.996 -80.3,-90.051 -144.15,-90.051 h -96.09 c -77.25,0 -149.6,0 -149.6,93.074 v 18.852"
         style="fill:#231f20;fill-opacity:1;fill-rule:nonzero;stroke:none"
         id="path18" /><path
         d="m 1818.25,688.293 h 52.29 v -310.18 h -52.29 v 310.18 0"
         style="fill:#231f20;fill-opacity:1;fill-rule:nonzero;stroke:none"
         id="path20" /><path
         d="m 2183.07,693.164 h -74.82 c -99.13,0 -171.52,-23.711 -171.52,-125.898 v -68.118 c 0,-102.175 72.39,-125.906 171.52,-125.906 h 74.82 c 99.13,0 171.48,23.731 171.48,125.906 v 68.118 c 0,102.187 -72.35,125.898 -171.48,125.898 z m 119.19,-190.976 c 0,-72.391 -42.56,-86.348 -103.38,-86.348 h -106.44 c -60.82,0 -103.4,13.957 -103.4,86.348 v 62.05 c 0,72.352 42.58,86.367 103.4,86.367 h 106.44 c 60.82,0 103.38,-14.015 103.38,-86.367 v -62.05 0"
         style="fill:#231f20;fill-opacity:1;fill-rule:nonzero;stroke:none"
         id="path22" /><path
         d="m 1064.56,245.793 54.97,120.652 v 0 l -185.6,321.231 h 58.992 l 150.208,-274.289 135.02,274.289 h 56.56 l -219.62,-441.895 -50.53,0.012"
         style="fill:#231f20;fill-opacity:1;fill-rule:nonzero;stroke:none"
         id="path24" /><path
         d="M 359.324,818.438 H 3.47656 V 378.113 H 56.457 V 551.457 H 347.77 c 129.535,0 137.429,49.258 137.429,147.176 0,102.781 -45.594,119.805 -125.875,119.805 z m 66.285,-155.676 c 0,-45.594 -27.961,-62.657 -75.41,-62.657 H 56.457 v 169.708 h 288.879 c 51.691,0 80.273,-12.77 80.273,-65.098 v -41.953 0"
         style="fill:#231f20;fill-opacity:1;fill-rule:nonzero;stroke:none"
         id="path26" /><path
         d="m 1818.7,815.359 h 52.31 v -57.187 h -52.31 v 57.187 0"
         style="fill:#231f20;fill-opacity:1;fill-rule:nonzero;stroke:none"
         id="path28" /><path
         d="m 3504.59,649.465 h -67.74 v 42.32 h 67.74 v 73.176 h 52 v -73.176 h 206.19 v -42.32 H 3556.59 V 495.879 c 0,-57.441 19.92,-74.981 76.78,-74.981 h 16.35 c 68.9,0 79.81,14.5 79.81,79.231 v 22.945 h 42.32 v -33.855 c 0,-61.68 -6.02,-110.664 -118.52,-110.664 h -28.43 c -97.34,0 -120.31,47.187 -120.31,97.351 v 173.559"
         style="fill:#231f20;fill-opacity:1;fill-rule:nonzero;stroke:none"
         id="path30" /><path
         d="m 3821.95,691.785 h 48.37 v -44.734 h 1.2 c 19.35,39.902 58.68,49.558 94.33,49.558 h 48.99 c 97.33,0 129.38,-31.425 129.38,-107.011 v -36.891 h -48.37 v 13.309 c 0,76.199 -15.68,88.269 -108.23,88.269 h -32.06 c -55.01,0 -81.61,-35.058 -81.61,-74.98 V 383.418 h -52 v 308.367"
         style="fill:#231f20;fill-opacity:1;fill-rule:nonzero;stroke:none"
         id="path32" /><path
         d="m 4391.15,696.609 h -82.23 c -93.12,0 -128.77,-22.957 -128.77,-79.218 v -15.094 h 51.96 v 10.867 c 0,25.43 12.72,41.121 78.02,41.121 h 76.18 c 79.82,0 114.9,-7.234 114.9,-62.867 v -58.07 H 4500 c -18.15,29.64 -42.35,36.875 -110.03,36.875 h -83.47 c -90.7,0 -140.29,-8.438 -140.29,-78.594 v -20.574 c 0,-58.028 20.55,-92.5 99.19,-92.5 h 124.57 c 79.79,0 96.12,7.863 110.03,35.695 h 1.21 v -30.832 h 52.02 v 206.789 c 0,91.922 -65.33,106.402 -162.08,106.402 z M 4501.21,466.23 c 0,-38.691 -36.29,-45.332 -130.62,-45.332 h -68.92 c -71.37,0 -83.44,14.5 -83.44,48.985 v 9.66 c 0,38.699 18.71,48.387 85.84,48.387 h 79.81 c 79.84,0 117.33,-5.45 117.33,-47.774 v -13.926 0"
         style="fill:#231f20;fill-opacity:1;fill-rule:nonzero;stroke:none"
         id="path34" /><path
         d="m 2407.71,820.691 h 429.91 V 772.324 H 2466.96 V 632.629 h 356.17 v -48.371 h -356.17 v -153 h 373.11 v -48.367 h -432.36 v 437.8"
         style="fill:#231f20;fill-opacity:1;fill-rule:nonzero;stroke:none"
         id="path36" /><path
         d="m 3378.17,598.27 c 0,-130.653 -105.91,-236.571 -236.56,-236.571 -130.65,0 -236.58,105.918 -236.58,236.571 0,130.664 105.93,236.582 236.58,236.582 130.65,0 236.56,-105.918 236.56,-236.582 v 0"
         style="fill:#ffffff;fill-opacity:1;fill-rule:nonzero;stroke:none"
         id="path38" /><path
         d="m 3141.63,872.84 c -151.63,0 -274.55,-122.949 -274.55,-274.57 0,-151.661 122.92,-274.559 274.55,-274.559 151.62,0 274.52,122.898 274.52,274.559 0,151.621 -122.9,274.57 -274.52,274.57 z M 3334.71,510.273 3229.62,405.254 c -5.23,-5.274 -14.53,-4.512 -20.7,1.687 l -67.27,67.231 -67.32,-67.297 c -6.18,-6.191 -15.47,-6.926 -20.72,-1.707 l -105.07,105.066 c -5.23,5.282 -4.51,14.551 1.69,20.723 l 67.29,67.324 -67.25,67.313 c -6.19,6.156 -6.91,15.422 -1.66,20.695 l 105.05,105.027 c 5.27,5.293 14.52,4.532 20.7,-1.64 l 67.29,-67.293 67.2,67.246 c 6.22,6.172 15.51,6.922 20.71,1.648 l 105.1,-105.047 c 5.24,-5.273 4.51,-14.531 -1.68,-20.683 l -67.23,-67.266 67.25,-67.277 c 6.21,-6.16 6.93,-15.449 1.71,-20.731 v 0"
         style="fill:#00adef;fill-opacity:1;fill-rule:nonzero;stroke:none"
         id="path40" /><path
         d="m 82.1602,146.602 c -8.8399,0 -17.1016,-1.399 -24.7813,-4.192 -7.6797,-2.793 -14.3476,-6.961 -20,-12.5 -5.6562,-5.547 -10.1133,-12.422 -13.375,-20.644 -3.2656,-8.211 -4.8984,-17.7816 -4.8984,-28.7113 0,-10.8477 1.5156,-20.2734 4.5429,-28.25 3.0235,-7.9805 7.3204,-14.582 12.8907,-19.8164 5.5703,-5.2227 12.2812,-9.1016 20.1172,-11.6094 7.8398,-2.5195 16.5703,-3.7812 26.207,-3.7812 2.625,0 5.4101,0.1367 8.3515,0.4218 2.9454,0.2735 5.9102,0.6641 8.8982,1.1719 2.985,0.5195 5.887,1.1055 8.715,1.7695 2.82,0.6719 5.352,1.3946 7.578,2.1836 V 5.66406 C 111.77,3.84766 106.383,2.46094 100.25,1.47266 94.1172,0.488281 87.8281,0 81.3828,0 68.2461,0 56.6133,1.82422 46.4688,5.48828 36.3281,9.14063 27.8164,14.3828 20.9375,21.2305 14.0586,28.0664 8.84766,36.4258 5.30859,46.2891 1.77344,56.1602 0,67.3438 0,79.8438 c 0,12.2656 1.87109,23.5432 5.60547,33.8472 3.73047,10.301 9.12113,19.149 16.15623,26.543 7.0391,7.383 15.5664,13.145 25.5938,17.274 10.0234,4.133 21.289,6.191 33.789,6.191 3.3047,0 6.5664,-0.136 9.7891,-0.406 3.2227,-0.285 6.3086,-0.676 9.2574,-1.184 2.95,-0.519 5.676,-1.125 8.2,-1.828 2.511,-0.711 4.675,-1.453 6.48,-2.246 v -16.98 c -4.773,1.574 -9.988,2.89 -15.6366,3.953 -5.6563,1.055 -11.3477,1.594 -17.0742,1.594"
         style="fill:#00adef;fill-opacity:1;fill-rule:nonzero;stroke:none"
         id="path42" /><path
         d="M 389.691,160.754 V 20.2813 h 77.02 V 2.94922 H 370.469 V 160.754 h 19.222"
         style="fill:#00adef;fill-opacity:1;fill-rule:nonzero;stroke:none"
         id="path44" /><path
         d="M 718.406,2.94922 V 160.754 h 19.227 V 2.94922 h -19.227"
         style="fill:#00adef;fill-opacity:1;fill-rule:nonzero;stroke:none"
         id="path46" /><path
         d="m 1080.97,72.7734 c 9.67,-13.9257 19.23,-28.2304 28.66,-42.9296 h 0.71 c -1.02,15.332 -1.54,30.9765 -1.54,46.9335 v 83.9767 h 19.34 V 2.94922 h -19.22 l -61.91,87.97658 c -10.7,15.3322 -20.25,29.6482 -28.67,42.9292 h -0.7 c 1.02,-14.382 1.53,-31.171 1.53,-50.3472 V 2.94922 H 999.945 V 160.754 h 19.105 l 61.92,-87.9806"
         style="fill:#00adef;fill-opacity:1;fill-rule:nonzero;stroke:none"
         id="path48" /><path
         d="M 1390.34,2.94922 V 160.754 h 19.23 V 2.94922 h -19.23"
         style="fill:#00adef;fill-opacity:1;fill-rule:nonzero;stroke:none"
         id="path50" /><path
         d="m 1793.83,81.7266 c 0,10.6172 -1.37,19.9724 -4.12,28.0784 -2.76,8.093 -6.55,14.851 -11.38,20.285 -4.84,5.426 -10.54,9.527 -17.1,12.32 -6.57,2.793 -13.63,4.192 -21.18,4.192 -7.55,0 -14.6,-1.399 -21.16,-4.192 -6.57,-2.793 -12.27,-6.894 -17.11,-12.32 -4.83,-5.434 -8.63,-12.192 -11.38,-20.285 -2.75,-8.106 -4.13,-17.4612 -4.13,-28.0784 0,-10.6133 1.4,-19.9493 4.19,-28.0078 2.79,-8.0547 6.61,-14.8008 11.44,-20.2227 4.84,-5.4297 10.54,-9.5117 17.1,-12.2656 6.57,-2.7539 13.66,-4.1328 21.29,-4.1328 7.55,0 14.56,1.3789 21.05,4.1328 6.49,2.7539 12.15,6.8359 16.99,12.2656 4.83,5.4219 8.62,12.168 11.38,20.2227 2.75,8.0585 4.12,17.3945 4.12,28.0078 z m 20.29,1.6523 c 0,-7.5391 -0.79,-14.6992 -2.36,-21.4648 -1.57,-6.7578 -3.81,-12.9883 -6.72,-18.6914 -2.91,-5.7032 -6.39,-10.793 -10.44,-15.2735 -4.05,-4.4844 -8.51,-8.2539 -13.38,-11.3164 v -0.4726 c 6.52,1.0156 12.69,1.8086 18.51,2.3554 5.82,0.5469 11.72,0.75 17.69,0.5938 V 1.76563 c -3.69,0.23828 -7.7,0.5 -12.03,0.77343 -4.32,0.27344 -9.32,0.41016 -14.97,0.41016 -4.25,0 -8.54,-0.11719 -12.86,-0.35156 -4.33,-0.23438 -8.61,-0.51953 -12.86,-0.83203 -4.24,-0.3125 -8.41,-0.58594 -12.5,-0.820317 -4.08,-0.230469 -7.98,-0.359375 -11.67,-0.359375 -11.72,0 -22.2,1.972652 -31.43,5.898442 -9.25,3.93752 -17.05,9.45312 -23.42,16.57032 -6.36,7.1211 -11.24,15.6641 -14.62,25.6562 -3.38,9.9805 -5.07,20.9961 -5.07,33.0157 0,12.0312 1.75,23.0584 5.25,33.0864 3.5,10.031 8.45,18.652 14.86,25.89 6.4,7.235 14.17,12.871 23.29,16.926 9.12,4.051 19.34,6.07 30.66,6.07 11.56,0 21.92,-2.019 31.08,-6.07 9.16,-4.055 16.93,-9.652 23.29,-16.809 6.37,-7.16 11.25,-15.644 14.63,-25.48 3.38,-9.824 5.07,-20.4767 5.07,-31.9611"
         style="fill:#00adef;fill-opacity:1;fill-rule:nonzero;stroke:none"
         id="path52" /><path
         d="m 2133.63,17.0977 c 5.74,0 10.83,0.6757 15.28,2.0117 4.43,1.3281 8.31,3.2265 11.61,5.6562 3.3,2.4414 6.06,5.3711 8.26,8.7891 2.2,3.418 3.89,7.2148 5.07,11.375 0.78,2.5976 1.34,5.4922 1.65,8.6719 0.32,3.1836 0.47,6.2734 0.47,9.2578 v 97.8946 h 19.23 V 63.3281 c 0,-3.6914 -0.2,-7.5468 -0.6,-11.5508 -0.39,-4.0156 -1.02,-7.746 -1.88,-11.2031 -1.49,-5.8164 -3.74,-11.2109 -6.72,-16.1601 -2.99,-4.9493 -6.88,-9.2383 -11.68,-12.8516 -4.8,-3.625 -10.56,-6.45703 -17.28,-8.49609 C 2150.32,1.02344 2142.44,0 2133.39,0 c -8.64,0 -16.23,0.945313 -22.76,2.83203 -6.52,1.88281 -12.12,4.50391 -16.8,7.83987 -4.68,3.3398 -8.51,7.3164 -11.5,11.9179 -2.99,4.5977 -5.31,9.6055 -6.96,15.0391 -1.18,3.9219 -2.03,8.1328 -2.54,12.6133 -0.51,4.4844 -0.76,8.8476 -0.76,13.0859 v 97.4259 h 19.22 V 62.8594 c 0,-3.5352 0.26,-7.1758 0.77,-10.9063 0.51,-3.7383 1.31,-7.1406 2.42,-10.2031 2.75,-7.6289 7.33,-13.6445 13.74,-18.0391 6.4,-4.4062 14.88,-6.6132 25.41,-6.6132"
         style="fill:#00adef;fill-opacity:1;fill-rule:nonzero;stroke:none"
         id="path54" /><path
         d="m 2476.15,20.2813 h 80.9 V 2.94922 H 2456.92 V 160.754 h 95.77 v -17.336 h -76.54 V 92.4609 h 68.04 v -17.332 h -68.04 V 20.2813"
         style="fill:#00adef;fill-opacity:1;fill-rule:nonzero;stroke:none"
         id="path56" /><path
         d="m 2990.85,119.004 c 0,-4.641 0.94,-8.477 2.83,-11.504 1.88,-3.027 4.41,-5.52 7.58,-7.492 3.18,-1.9611 6.86,-3.5744 11.06,-4.8322 4.19,-1.2578 8.56,-2.4336 13.11,-3.5352 6.12,-1.4961 12.13,-3.1445 18.05,-4.9531 5.92,-1.8125 11.19,-4.3047 15.82,-7.4883 4.63,-3.1836 8.37,-7.3359 11.23,-12.4414 2.86,-5.1172 4.3,-11.6797 4.3,-19.6992 0,-8.1797 -1.55,-15.2344 -4.65,-21.1719 -3.1,-5.9375 -7.38,-10.8086 -12.86,-14.6289 -5.47,-3.80858 -11.93,-6.64061 -19.4,-8.48436 C 3030.44,0.925781 3022.27,0 3013.38,0 c -4.09,0 -8.28,0.253906 -12.55,0.769531 -4.29,0.507809 -8.38,1.195309 -12.27,2.062499 -3.9,0.85938 -7.41,1.84375 -10.56,2.94922 -3.14,1.10156 -5.62,2.19531 -7.43,3.30078 V 26.6484 c 2.83,-1.4062 6.02,-2.7031 9.55,-3.8867 3.54,-1.1797 7.2,-2.1758 10.97,-3.0039 3.78,-0.832 7.59,-1.4765 11.44,-1.9453 3.85,-0.4766 7.47,-0.7148 10.85,-0.7148 5.5,0 10.76,0.4804 15.75,1.4179 4.99,0.9492 9.37,2.5196 13.15,4.7149 3.77,2.207 6.76,5.2148 8.96,9.0273 2.2,3.8164 3.31,8.5899 3.31,14.3242 0,4.7266 -0.97,8.6133 -2.89,11.6797 -1.94,3.0664 -4.51,5.6055 -7.73,7.6055 -3.23,2.0039 -6.94,3.6367 -11.15,4.8945 -4.2,1.2578 -8.62,2.4414 -13.26,3.543 -6.14,1.4101 -12.13,3.0078 -17.99,4.7773 -5.86,1.7657 -11.09,4.2188 -15.69,7.3633 -4.59,3.1445 -8.3,7.1953 -11.08,12.1485 -2.79,4.9612 -4.19,11.2892 -4.19,18.9962 0,8.015 1.47,14.918 4.4,20.691 2.94,5.782 6.9,10.559 11.91,14.336 5.01,3.77 10.77,6.563 17.3,8.367 6.53,1.809 13.49,2.715 20.87,2.715 8.42,0 16.26,-0.808 23.54,-2.422 7.26,-1.609 13.93,-3.711 19.99,-6.308 v -17.801 c -6.53,2.742 -13.27,4.988 -20.23,6.719 -6.96,1.726 -14.41,2.636 -22.35,2.715 -5.98,0 -11.16,-0.657 -15.57,-1.954 -4.4,-1.289 -8.06,-3.144 -10.96,-5.539 -2.91,-2.398 -5.08,-5.312 -6.5,-8.726 -1.4,-3.418 -2.12,-7.219 -2.12,-11.379"
         style="fill:#00adef;fill-opacity:1;fill-rule:nonzero;stroke:none"
         id="path58" /><path
         d="m 3387.5,136.219 c -7.04,-19.637 -13.75,-37.4885 -20.16,-53.5432 l -5.9,-14.8633 h 52.3 l -5.98,14.8555 c -6.48,16.3359 -13.07,34.187 -19.79,53.551 z M 3315.09,2.94922 3379.37,160.754 h 16.62 L 3460.27,2.94922 h -20.87 l -18.85,47.52738 h -65.97 L 3335.73,2.94922 h -20.64"
         style="fill:#00adef;fill-opacity:1;fill-rule:nonzero;stroke:none"
         id="path60" /><path
         d="m 3787.69,72.7734 c 9.67,-13.9257 19.23,-28.2304 28.66,-42.9296 h 0.71 c -1.03,15.332 -1.54,30.9765 -1.54,46.9335 v 83.9767 h 19.35 V 2.94922 h -19.23 l -61.91,87.97658 c -10.7,15.3322 -20.25,29.6482 -28.67,42.9292 h -0.7 c 1.02,-14.382 1.53,-31.171 1.53,-50.3472 V 2.94922 h -19.22 V 160.754 h 19.11 l 61.91,-87.9806"
         style="fill:#00adef;fill-opacity:1;fill-rule:nonzero;stroke:none"
         id="path62" /><path
         d="m 4153.67,2.94922 h -19.23 V 143.418 h -52.72 v 17.336 h 124.66 v -17.336 h -52.71 V 2.94922"
         style="fill:#00adef;fill-opacity:1;fill-rule:nonzero;stroke:none"
         id="path64" /><path
         d="m 4530.39,198.254 -21.35,-29.133 h -16.39 l 17.22,29.133 z M 4472.6,20.2813 h 80.9 V 2.94922 H 4453.37 V 160.754 h 95.78 V 143.418 H 4472.6 V 92.4609 h 68.05 V 75.1289 H 4472.6 V 20.2813"
         style="fill:#00adef;fill-opacity:1;fill-rule:nonzero;stroke:none"
         id="path66" /></g></g></svg>
