<svg width="286" height="51" xmlns="http://www.w3.org/2000/svg"><g clip-path="url(#a)"><path d="M65.6107 4.41067H19.3389V50.6049H65.6107V4.41067Z" fill="#C31011"/><path d="M12.0431 23.9519C12.0431 23.9519 37.0756 21.1299 53.867 10.6746C52.3707 18.8067 48.4637 25.6359 48.4637 25.6359C70.907 33.4365 76.81 50.8203 76.81 50.8203C76.81 50.8203 63.3433 35.9212 43.2263 32.9335C28.0981 46.5422 0.5 50.8203 0.5 50.8203C0.5 50.8203 32.2536 38.3917 39.9024 22.4589C29.0957 25.1144 12.0431 23.9527 12.0431 23.9527V23.9519Z" fill="black"/><path d="M42.8345 12.0877C43.3333 9.09999 43.4436 5.33844 43.1386 3.57121C43.1386 3.57121 45.6916 2.50298 48.5176 0.179764C46.856 7.48249 42.8345 12.0877 42.8345 12.0877Z" fill="black"/><path d="M103.413 4.41067H113.279L101.099 18.879L114.375 34.9691H104.063L93.7918 21.7162H93.7101V34.9691H85.7529V4.41067H93.7101V17.0151H93.7918L103.413 4.41067Z" fill="black"/><path d="M126.103 34.9699H118.146V4.41067H126.103V34.9691V34.9699Z" fill="black"/><path d="M135.36 4.41067H143.317L157.892 23.0948H157.972V4.41067H165.93V34.9691H157.972L143.398 16.2446H143.316V34.9691H135.359V4.41067H135.36Z" fill="black"/><path d="M181.76 29.6598L179.649 34.9691H171.205L182.978 4.41067H191.665L203.196 34.9691H194.711L192.722 29.6598H181.761H181.76ZM187.322 13.8541H187.241L183.953 23.5809H190.571L187.323 13.8541H187.322Z" fill="black"/><path d="M218.049 34.9699H210.091V11.1397H203.515V4.41067H224.625V11.1389H218.049V34.9691V34.9699Z" fill="black"/><path d="M238.714 11.1397V16.2454H247.686V22.9737H238.714V28.2434H248.173V34.9708H230.757V4.41067H248.173V11.1389H238.714V11.1397Z" fill="black"/><path d="M254.785 4.41067H264.568L269.237 12.314L273.905 4.41067H283.689L273.905 18.6359L285.232 34.9691H275.65L269.237 24.9991L262.213 34.9691H252.592L264.568 18.6359L254.785 4.41067Z" fill="black"/><path d="M91.0966 44.1341C90.7528 43.9734 90.4773 43.8935 90.1335 43.8935C89.5025 43.8935 89.2623 44.431 89.2623 44.6606C89.2623 45.0383 89.5025 45.474 90.1335 46.2865C90.7183 47.0301 91.0283 47.7636 91.0283 48.3473C91.0283 49.9043 89.7443 50.8194 88.1156 50.8194C87.2216 50.8194 86.1895 50.4981 85.7539 50.0414L86.5105 48.9655C86.9006 49.1935 87.2672 49.3996 87.7946 49.3996C88.4248 49.3996 88.8495 48.8739 88.8495 48.37C88.8495 47.8662 88.4366 47.3615 87.8864 46.607C87.3126 45.8054 87.0843 45.3932 87.0843 44.775C87.0843 43.4242 88.3448 42.5309 89.9052 42.5309C90.9365 42.5309 91.3266 42.8286 91.8085 43.1028L91.0974 44.1332L91.0966 44.1341Z" fill="black"/><path d="M103.945 50.6823H101.79L103.292 42.6696H106.262C108.062 42.6696 108.785 43.769 108.785 44.7986C108.785 46.538 107.317 47.8889 104.943 47.74L105.196 46.4009H105.391C105.689 46.4009 106.606 46.1376 106.606 45.0265C106.606 44.5344 106.274 44.0306 105.758 44.0306H105.196L103.946 50.6814L103.945 50.6823Z" fill="black"/><path d="M118.993 47.3623C118.993 45.0963 120.495 42.5317 123.259 42.5317C125.357 42.5317 126.309 44.5008 126.309 46.1259C126.309 48.7695 124.337 50.8194 122.204 50.8194C119.956 50.8194 118.993 49.0564 118.993 47.3615V47.3623ZM124.084 45.8289C124.084 45.3251 123.912 44.2039 122.984 44.2039C122.318 44.2039 121.218 44.9129 121.218 47.4086C121.218 47.8889 121.344 49.1489 122.41 49.1489C123.316 49.1489 124.084 47.7518 124.084 45.8289Z" fill="black"/><path d="M138.422 42.6696H141.633C143.33 42.6696 143.892 43.8599 143.892 44.7069C143.892 46.104 142.94 46.7567 142.195 47.1226L143.421 50.5343L141.116 50.7967L140.28 47.6492H139.659L139.087 50.6831H136.919L138.422 42.6705V42.6696ZM139.889 46.2874H140.542C141.127 46.2874 141.736 45.7263 141.736 44.9819C141.736 44.5016 141.345 44.0323 140.887 44.0323H140.325L139.889 46.2874Z" fill="black"/><path d="M155.659 50.6823L156.91 44.0314H154.823L155.076 42.6688H161.405L161.153 44.0314H159.066L157.816 50.6823H155.66H155.659Z" fill="black"/><path d="M176.061 44.1341C175.718 43.9734 175.442 43.8935 175.098 43.8935C174.467 43.8935 174.227 44.431 174.227 44.6606C174.227 45.0383 174.467 45.474 175.098 46.2865C175.683 47.0301 175.992 47.7636 175.992 48.3473C175.992 49.9042 174.708 50.8194 173.079 50.8194C172.186 50.8194 171.153 50.4981 170.718 50.0413L171.474 48.9655C171.864 49.1935 172.231 49.3996 172.758 49.3996C173.389 49.3996 173.813 48.8739 173.813 48.37C173.813 47.8662 173.4 47.3615 172.85 46.607C172.277 45.8054 172.047 45.3932 172.047 44.775C172.047 43.4241 173.309 42.5309 174.868 42.5309C175.9 42.5309 176.29 42.8286 176.772 43.1028L176.06 44.1332L176.061 44.1341Z" fill="black"/><path d="M198.023 50.6823H195.867L197.369 42.6696H200.339C202.14 42.6696 202.861 43.769 202.861 44.7986C202.861 46.538 201.393 47.8889 199.02 47.74L199.271 46.4009H199.466C199.764 46.4009 200.682 46.1376 200.682 45.0265C200.682 44.5344 200.349 44.0306 199.833 44.0306H199.271L198.022 50.6814L198.023 50.6823Z" fill="black"/><path d="M219.272 50.6823H217.105L217.804 46.9392H215.557L214.857 50.6823H212.691L214.193 42.6696H216.36L215.81 45.5774H218.057L218.596 42.7277H220.764L219.273 50.6831L219.272 50.6823Z" fill="black"/><path d="M232.452 50.6823L233.037 47.5684L231.948 42.8639L234.196 42.5553C234.356 43.6655 234.517 44.7876 234.596 46.2638H234.62C235.33 44.7876 235.984 43.6655 236.637 42.5553L238.462 42.7496L235.205 47.5684L234.62 50.6823H232.453H232.452Z" fill="black"/><path d="M253.313 44.1341C252.97 43.9734 252.695 43.8935 252.351 43.8935C251.721 43.8935 251.48 44.431 251.48 44.6606C251.48 45.0383 251.721 45.474 252.351 46.2865C252.936 47.0301 253.246 47.7636 253.246 48.3473C253.246 49.9042 251.961 50.8194 250.333 50.8194C249.439 50.8194 248.406 50.4981 247.971 50.0413L248.727 48.9655C249.118 49.1935 249.486 49.3996 250.013 49.3996C250.642 49.3996 251.067 48.8739 251.067 48.37C251.067 47.8662 250.654 47.3615 250.104 46.607C249.531 45.8054 249.301 45.3932 249.301 44.775C249.301 43.4241 250.563 42.5309 252.122 42.5309C253.154 42.5309 253.543 42.8286 254.025 43.1028L253.314 44.1332L253.313 44.1341Z" fill="black"/><path d="M264.006 50.6823L265.509 42.6696H267.664L266.161 50.6823H264.005H264.006Z" fill="black"/><path d="M278.184 47.3623C278.184 45.0963 279.686 42.5317 282.449 42.5317C284.547 42.5317 285.499 44.5008 285.499 46.1259C285.499 48.7695 283.527 50.8194 281.394 50.8194C279.147 50.8194 278.184 49.0564 278.184 47.3615V47.3623ZM283.276 45.8289C283.276 45.3251 283.104 44.2039 282.174 44.2039C281.51 44.2039 280.409 44.9129 280.409 47.4086C280.409 47.8889 280.535 49.1489 281.602 49.1489C282.507 49.1489 283.276 47.7518 283.276 45.8289Z" fill="black"/></g><defs><clipPath id="a"><rect width="285" height="50.64" fill="white" transform="translate(0.5 0.179764)"/></clipPath></defs></svg>